HIERARCHY
ROOT Hips
{
	OFFSET 0.000000 0.000000 0.000000
	CHANNELS 6 Xposition Yposition Zposition Yrotation Xrotation Zrotation
	JOINT Chest
	{
		OFFSET 0.000000 -0.009281 11.569106
		CHANNELS 3 Yrotation Xrotation Zrotation
		JOINT Chest2
		{
			OFFSET -0.000000 0.016865 9.269641
			CHANNELS 3 Yrotation Xrotation Zrotation
			JOINT Chest3
			{
				OFFSET -0.000000 0.000001 8.374491
				CHANNELS 3 Yrotation Xrotation Zrotation
				JOINT Chest4
				{
					OFFSET -0.000000 0.000001 8.374493
					CHANNELS 3 Yrotation Xrotation Zrotation
					JOINT Neck
					{
						OFFSET -0.000000 0.000002 12.152554
						CHANNELS 3 Yrotation Xrotation Zrotation
						JOINT Head
						{
							OFFSET -0.000000 0.040101 7.802319
							CHANNELS 3 Yrotation Xrotation Zrotation
							End Site
							{
								OFFSET -0.000000 0.020947 14.853096
							}
						}
					}
					JOINT RightCollar
					{
						OFFSET 2.894404 0.000001 6.791374
						CHANNELS 3 Yrotation Xrotation Zrotation
						JOINT RightShoulder
						{
							OFFSET 13.574684 0.000001 0.000000
							CHANNELS 3 Yrotation Xrotation Zrotation
							JOINT RightElbow
							{
								OFFSET 23.923903 0.000002 0.000000
								CHANNELS 3 Yrotation Xrotation Zrotation
								JOINT RightWrist
								{
									OFFSET 19.846718 0.012767 0.000000
									CHANNELS 3 Yrotation Xrotation Zrotation
									End Site
									{
										OFFSET 14.973145 0.000001 0.000000
									}
								}
							}
						}
					}
					JOINT LeftCollar
					{
						OFFSET -2.894404 0.000001 6.791374
						CHANNELS 3 Yrotation Xrotation Zrotation
						JOINT LeftShoulder
						{
							OFFSET -13.574684 -0.000001 0.000000
							CHANNELS 3 Yrotation Xrotation Zrotation
							JOINT LeftElbow
							{
								OFFSET -23.923903 -0.000002 0.000000
								CHANNELS 3 Yrotation Xrotation Zrotation
								JOINT LeftWrist
								{
									OFFSET -19.846718 0.012763 0.000000
									CHANNELS 3 Yrotation Xrotation Zrotation
									End Site
									{
										OFFSET -14.973145 -0.000001 0.000000
									}
								}
							}
						}
					}
				}
			}
		}
	}
	JOINT RightHip
	{
		OFFSET 9.469263 0.004643 0.045487
		CHANNELS 3 Yrotation Xrotation Zrotation
		JOINT RightKnee
		{
			OFFSET 0.000000 0.002661 -40.478676
			CHANNELS 3 Yrotation Xrotation Zrotation
			JOINT RightAnkle
			{
				OFFSET 0.000000 0.049106 -35.224068
				CHANNELS 3 Yrotation Xrotation Zrotation
				JOINT RightToe
				{
					OFFSET -0.000001 12.539529 -6.151390
					CHANNELS 3 Yrotation Xrotation Zrotation
					End Site
					{
						OFFSET -0.000001 5.044994 -1.291870
					}
				}
			}
		}
	}
	JOINT LeftHip
	{
		OFFSET -9.469263 0.004641 0.045487
		CHANNELS 3 Yrotation Xrotation Zrotation
		JOINT LeftKnee
		{
			OFFSET 0.000000 0.002661 -40.478676
			CHANNELS 3 Yrotation Xrotation Zrotation
			JOINT LeftAnkle
			{
				OFFSET 0.000000 0.049106 -35.224068
				CHANNELS 3 Yrotation Xrotation Zrotation
				JOINT LeftToe
				{
					OFFSET -0.000001 12.539529 -6.151390
					CHANNELS 3 Yrotation Xrotation Zrotation
					End Site
					{
						OFFSET -0.000001 5.044994 -1.291870
					}
				}
			}
		}
	}
}
MOTION
Frames: 15
Frame Time: 0.016667
46.725555 40.684414 83.534286 -2.516714 -1.717234 -117.311791 -1.047932 -4.152221 2.767881 -0.533108 -1.866800 1.205106 -0.533108 -1.866800 1.205105 -0.396115 -1.401158 0.902120 1.358283 -12.467267 -4.723214 0.606111 12.974733 -8.430821 9.459535 5.441250 -1.763846 43.038586 -13.976064 -15.111508 -25.410554 -60.657353 85.309152 -41.366487 39.035265 51.633447 -8.173212 5.681812 -6.702213 -40.271738 -10.170120 19.752880 -2.541190 -64.167640 -60.890057 29.070627 13.040239 -73.149011 -3.307272 1.538599 -11.221425 5.139009 -15.343101 -18.271432 -5.914452 7.112915 -0.592736 0.129935 1.796876 -0.417880 0.164828 -1.437710 16.796661 -0.237125 -7.877530 12.926536 4.867849 2.762082 8.393514 1.044361 0.362754 0.681478 
46.242512 39.556095 83.526192 -2.351178 -1.436611 -117.055372 -1.065265 -3.943863 2.581518 -0.610485 -1.804568 1.174624 -0.610485 -1.804567 1.174626 -0.454358 -1.354607 0.879094 1.400736 -12.588520 -4.746865 0.684455 12.751402 -8.452918 9.424667 5.634284 -1.726558 42.877049 -14.297265 -14.874663 -25.621149 -60.787215 85.366184 -41.323266 38.802783 51.645202 -8.330196 5.975149 -6.651994 -40.327520 -10.085109 20.269194 -2.616753 -64.294784 -60.783629 28.889764 13.196773 -73.403073 -3.920196 2.530202 -10.039062 5.117745 -16.271823 -17.804763 -4.702938 6.852955 -2.644110 -0.436890 1.560794 -0.231594 1.289963 -1.481471 15.396503 -0.912195 -7.547546 13.373211 3.060780 2.315941 9.207676 1.784602 0.352299 0.512154 
45.660549 38.462738 83.505226 -2.519008 -1.041800 -116.953056 -1.309620 -3.896720 2.505308 -0.729445 -1.789594 1.147575 -0.729445 -1.789594 1.147576 -0.543681 -1.343574 0.858474 1.476318 -12.695964 -4.776517 0.822368 12.555389 -8.473362 9.520911 5.942475 -1.594535 42.732385 -14.725037 -14.670538 -25.329728 -61.081938 85.013575 -41.305668 38.538799 51.584399 -8.467537 6.254396 -6.531907 -40.310079 -9.989020 20.713201 -2.279827 -64.458619 -61.033935 28.748946 13.808271 -73.961277 -4.718101 3.596810 -8.426495 5.324672 -17.964461 -18.859769 -3.194206 7.333319 -3.185823 -1.037426 1.344762 -0.125245 1.947634 -1.613998 14.752152 -1.327905 -7.228576 14.183536 1.771146 1.782416 9.095386 1.977300 0.395599 0.341946 
45.108105 37.554905 83.467041 -2.720544 -0.739356 -116.986032 -1.561683 -3.948830 2.538160 -0.835093 -1.808379 1.157623 -0.835093 -1.808379 1.157624 -0.622844 -1.357875 0.865677 1.554009 -12.707399 -4.840237 0.944339 12.536217 -8.561774 9.543635 5.826747 -1.637328 42.725302 -14.984035 -14.154941 -24.973897 -61.210769 84.683219 -41.296454 38.395826 51.536499 -8.405016 6.111197 -6.568140 -40.310564 -9.646590 20.863521 -1.793206 -64.477382 -61.461744 28.800083 14.365522 -74.513812 -5.184142 4.430536 -6.887463 5.313217 -19.470993 -19.887182 -1.664603 7.964427 -3.077032 -1.527023 1.077871 -0.077412 2.288790 -1.746141 14.561839 -1.263712 -6.881267 14.379751 0.926892 1.243731 9.194922 1.746556 0.368834 0.179027 
44.563030 36.811413 83.419655 -2.839076 -0.569874 -117.138181 -1.744165 -4.053774 2.655583 -0.897900 -1.848111 1.209504 -0.897900 -1.848110 1.209510 -0.669711 -1.387869 0.904338 1.603508 -12.644340 -4.926392 0.998936 12.652669 -8.707633 9.513669 5.315659 -1.759721 42.842208 -15.046613 -13.510936 -24.964560 -60.999900 84.627990 -41.359032 38.481026 51.515134 -8.280287 6.059862 -6.559326 -40.358570 -9.612174 20.798549 -1.470327 -64.285720 -61.724358 28.760929 14.562409 -74.691520 -5.255987 4.962219 -5.998742 4.852169 -20.556042 -18.928727 -0.871989 8.439316 -3.100947 -1.519873 0.825857 -0.036176 2.607203 -1.769285 14.484220 -1.062048 -6.621341 13.530642 0.465192 0.858185 10.207685 1.318647 0.201498 0.045081 
44.012421 36.210964 83.378883 -2.949229 -0.561726 -117.240361 -1.774880 -4.247501 2.683031 -0.924746 -1.882681 1.266565 -0.924746 -1.882682 1.266564 -0.689598 -1.413937 0.946992 1.611749 -12.566461 -4.989761 0.983509 12.795042 -8.828031 9.466144 4.785024 -1.736713 42.960643 -14.871043 -13.100022 -25.178335 -60.810165 84.744008 -41.492682 38.660220 51.491003 -8.194997 6.009632 -6.485264 -40.347816 -9.641732 20.568198 -1.491675 -64.092555 -61.694722 28.690619 14.437270 -74.637848 -4.740833 5.089165 -5.450625 3.022802 -21.378390 -15.493635 0.129988 8.837376 -3.474437 -1.343836 0.570595 0.061195 3.064070 -1.815119 14.147071 -0.962855 -6.381868 12.468941 0.212171 0.475027 11.148528 0.882532 0.057303 -0.059457 
43.433037 35.737789 83.343224 -2.859195 -0.445924 -117.483543 -1.803743 -4.216019 2.818519 -0.930857 -1.893691 1.303430 -0.930856 -1.893691 1.303427 -0.694043 -1.422264 0.974601 1.586792 -12.515008 -5.008014 0.925222 12.888196 -8.875421 9.425910 4.651508 -1.701523 42.998879 -14.765674 -13.000813 -25.192236 -60.860483 84.737485 -41.600712 38.776480 51.448892 -8.224607 6.042946 -6.526166 -40.205017 -9.573327 20.527869 -1.519118 -64.057448 -61.767839 28.711393 14.167440 -74.563386 -4.339752 5.370698 -4.069347 1.345964 -21.771716 -10.685588 0.695949 8.854278 -4.403922 -1.049341 0.489789 0.110688 3.506931 -1.494051 13.733344 -0.966647 -6.386032 11.995231 -0.002785 0.153904 11.701535 0.547104 0.002426 -0.108853 
42.839230 35.408340 83.310051 -2.798462 -0.307007 -117.612319 -1.847489 -4.143524 2.844225 -0.916330 -1.886318 1.296432 -0.916330 -1.886318 1.296433 -0.683187 -1.416693 0.969409 1.526481 -12.525927 -4.968246 0.827717 12.865905 -8.824477 9.457671 4.773073 -1.652935 42.936089 -14.797817 -13.120512 -24.829597 -60.994580 84.466156 -41.642915 38.812355 51.398902 -8.247594 6.110234 -6.481542 -40.088351 -9.475613 20.568544 -1.343014 -64.197501 -62.053225 28.779692 13.863317 -74.512631 -4.152097 5.695575 -1.730638 -0.064224 -22.054601 -5.900348 1.238851 8.776637 -5.035422 -0.750538 0.477914 0.073408 3.939274 -1.054761 13.290670 -1.004538 -6.598110 11.603341 -0.355006 -0.108420 11.634748 0.404881 0.032167 -0.132170 
42.228790 35.264252 83.265518 -2.755803 -0.202662 -117.543362 -1.843003 -4.070344 2.717525 -0.890361 -1.862363 1.244047 -0.890360 -1.862362 1.244047 -0.663923 -1.398594 0.930244 1.447385 -12.589336 -4.886899 0.715070 12.746878 -8.699945 9.540684 4.949037 -1.637985 42.811998 -14.839001 -13.383031 -24.524740 -61.047145 84.331471 -41.626103 38.780588 51.362213 -8.190477 5.937995 -6.449407 -40.091424 -9.244196 20.514711 -1.092403 -64.346925 -62.317478 28.811288 13.645502 -74.508246 -3.962050 5.817794 1.464926 -1.494762 -21.968521 -2.412349 2.076616 8.650086 -4.558398 -0.424011 0.441443 0.031136 4.345931 -0.543811 12.597312 -0.921510 -6.856312 10.617094 -1.450804 -0.331437 11.095612 0.846086 0.169464 -0.160200 
41.700912 35.630459 83.206596 -2.810813 -0.009107 -117.263310 -1.948290 -4.049081 2.446801 -0.869310 -1.838465 1.177464 -0.869310 -1.838466 1.177469 -0.648386 -1.380533 0.880410 1.386551 -12.654396 -4.804635 0.637573 12.625967 -8.565974 9.627219 5.249571 -1.728265 42.749071 -14.834794 -13.784074 -24.702631 -60.999730 84.638126 -41.543079 38.662965 51.363374 -8.083071 5.646847 -6.519223 -40.177075 -9.187636 20.384145 -0.853597 -64.307290 -62.512849 28.854564 13.608953 -74.548134 -3.803446 5.818417 5.310977 -2.821698 -21.582747 0.001390 3.138368 8.728028 -3.117616 -0.299562 0.123516 -0.297721 4.440403 -0.207276 11.149030 -0.579812 -6.652369 8.583934 -3.210579 -0.746806 10.711302 1.615816 0.421150 -0.268823 
41.228561 35.968227 83.135338 -3.061000 -0.143918 -116.779569 -1.847823 -4.338479 1.978905 -0.847026 -1.828923 1.136655 -0.847026 -1.828923 1.136656 -0.631815 -1.373276 0.849889 1.352056 -12.701241 -4.740889 0.601280 12.539672 -8.457065 9.637283 5.433760 -1.882424 42.837519 -14.625646 -14.095965 -25.328759 -60.913109 85.198537 -41.385510 38.542915 51.464885 -8.073094 5.472158 -6.615902 -40.152975 -9.493028 20.263926 -0.716443 -64.180330 -62.655388 29.002254 13.767071 -74.513061 -3.906655 5.553175 9.438030 -3.770225 -20.812918 1.970642 4.091520 8.379913 -2.393920 0.136778 -0.025874 0.025812 4.805949 -0.350644 8.681450 -0.104542 -6.165560 5.994153 -5.431490 -1.044258 10.719949 2.319892 0.615944 -0.529388 
40.876175 36.933270 83.078529 -3.190198 -0.199647 -116.500324 -1.775281 -4.506649 1.686883 -0.823287 -1.820043 1.123808 -0.823287 -1.820042 1.123810 -0.614068 -1.366553 0.840338 1.330522 -12.721235 -4.697114 0.579679 12.503130 -8.381914 9.586779 5.236537 -1.875080 43.000030 -14.126909 -14.171544 -26.108050 -60.777947 85.733088 -41.252850 38.573046 51.624516 -8.148223 5.428766 -6.621608 -40.000470 -9.886888 20.095974 -0.883375 -64.163767 -62.588616 29.135176 13.920983 -74.316030 -3.957593 5.453199 13.497949 -4.367138 -19.940934 3.655842 4.658163 8.078683 -2.011120 0.548169 -0.173186 0.481298 4.764553 -0.384395 5.926455 0.436340 -5.911671 3.562528 -7.606056 -0.550825 10.009931 3.058508 0.517658 -0.698280 
40.420582 38.028847 83.056122 -3.230986 -0.297157 -116.257237 -1.613829 -4.645252 1.419195 -0.811353 -1.814301 1.117511 -0.811353 -1.814301 1.117517 -0.605148 -1.362216 0.835660 1.325054 -12.723807 -4.669142 0.581002 12.499176 -8.330888 9.555624 5.040707 -1.749633 43.132457 -13.862052 -14.151510 -26.602829 -60.574837 85.951620 -41.247888 38.718823 51.732177 -8.183939 5.434994 -6.579661 -39.921336 -10.049372 19.925743 -1.335964 -64.224433 -62.232592 29.200691 13.899444 -74.181291 -4.107810 5.570340 16.354266 -4.516740 -19.253060 5.021508 5.016489 7.627706 -2.197937 0.844284 -0.025217 1.418060 4.820573 -0.451236 2.721140 0.944640 -5.677386 1.632142 -10.066076 0.255253 8.248767 3.870908 0.225990 -0.796223 
39.953163 39.332508 83.067368 -3.338504 -0.174283 -116.108940 -1.689171 -4.718413 1.230866 -0.813003 -1.806905 1.109834 -0.813003 -1.806904 1.109837 -0.606422 -1.356662 0.829906 1.336597 -12.745013 -4.652956 0.610892 12.461181 -8.294427 9.552887 5.220498 -1.794069 43.176204 -14.248885 -14.153281 -26.639855 -60.446710 85.834844 -41.315544 38.842316 51.758159 -8.186239 5.433252 -6.631986 -39.952860 -9.921138 19.931598 -1.604953 -64.294504 -62.028301 29.248642 13.755463 -74.192090 -4.732885 5.962281 17.248620 -4.005460 -18.933119 5.521265 5.658410 7.433529 -1.508133 0.468451 0.028773 2.001345 4.680350 -0.396011 -0.854405 1.429244 -5.359709 -0.050335 -12.835496 0.550741 5.898394 4.703456 0.215174 -0.848510 
39.502220 41.079613 83.102539 -3.025053 1.048864 -116.110976 -2.607317 -3.865411 1.141092 -0.817652 -1.803677 1.110213 -0.817651 -1.803676 1.110215 -0.609913 -1.354250 0.830183 1.358474 -12.798160 -4.653752 0.655292 12.363856 -8.284683 9.545946 5.296342 -1.878265 43.072928 -14.615034 -14.014098 -26.342071 -60.557475 85.584169 -41.449027 38.931559 51.675668 -8.171461 5.402085 -6.645668 -40.028167 -9.729977 19.974649 -1.345774 -64.324843 -62.319022 29.237543 13.601019 -74.188579 -6.589632 7.277989 15.769472 -3.067005 -18.676522 4.610665 6.034741 7.624360 2.165575 0.161731 -0.473222 1.572018 3.424141 0.862035 -4.317250 1.938117 -5.225498 -1.914504 -15.005811 0.155507 4.340655 4.972302 0.669751 -1.795525 
